<svg width="800" height="600" xmlns="http://www.w3.org/2000/svg">

    <!-- Background -->
    <rect width="800" height="600" fill="skyblue" id="background"/>

    <!-- Sun -->
    <circle cx="700" cy="100" r="50" fill="yellow" id="sun"/>

    <!-- Mountains -->
    <polygon points="200,400 350,200 500,400" fill="#8B4513" id="mountain1"/>
    <polygon points="400,400 550,250 700,400" fill="#A0522D" id="mountain2"/>

    <!-- Trees -->
    <g class="tree" id="tree1">
        <rect x="150" y="350" width="20" height="50" fill="sienna" class="treeTrunk"/>
        <polygon points="135,350 160,300 185,350" fill="green" class="treeLeaves"/>

    </g>
    <g class="tree" id="tree2">
        <rect x="700" y="350" width="20" height="50" fill="sienna" class="treeTrunk"/>
        <polygon points="785,350 710,300 635,350" fill="green" class="treeLeaves"/>
    </g>

    <!-- House -->
    <g id="house">
        <rect x="300" y="300" width="200" height="150" fill="peru" id="houseBase"/>
        <polygon points="290,300 400,200 510,300" fill="brown" id="houseRoof"/>
        <rect x="370" y="370" width="60" height="80" fill="burlywood" id="houseDoor"/>
        <rect x="320" y="330" width="40" height="40" fill="lightblue" id="window1"/>
        <rect x="440" y="330" width="40" height="40" fill="lightblue" id="window2"/>
    </g>

    <!-- Ground -->
    <rect x="0" y="400" width="800" height="200" fill="greenyellow" id="ground"/>

    <!-- Clouds -->
    <g id="cloud1">
        <ellipse cx="200" cy="80" rx="60" ry="30" fill="white" class="cloud" id="cloud1"/>
        <ellipse cx="250" cy="100" rx="80" ry="40" fill="white" class="cloud" id="cloud2"/>
        <ellipse cx="250" cy="140" rx="60" ry="30" fill="white" class="cloud" id="cloud3"/>
    </g>

    <g id="cloud2">
        <ellipse cx="600" cy="180" rx="60" ry="30" fill="white" class="cloud" id="cloud1"/>
        <ellipse cx="550" cy="140" rx="80" ry="40" fill="white" class="cloud" id="cloud2"/>
        <ellipse cx="550" cy="180" rx="60" ry="30" fill="white" class="cloud" id="cloud3"/>
    </g>

    <!-- Flowers -->
    <g class="flower" id="flower1" transform="translate(100,450)">
        <g class="stem">
            <rect x="15" y="20" width="5" height="30" fill="green"/>
        </g>
        <g class="leaves">
            <polygon points="10,40 17,30 24,40" fill="green"/>
        </g>
        <g class="petals">
            <circle cx="17.5" cy="15" r="10" fill="red"/>
            <g class="innerPetals">
                <circle cx="12" cy="10" r="3" fill="orange"/>
                <circle cx="23" cy="10" r="3" fill="orange"/>
                <circle cx="12" cy="20" r="3" fill="orange"/>
                <circle cx="23" cy="20" r="3" fill="orange"/>
            </g>
        </g>
    </g>

    <g class="flower" id="flower2" transform="translate(200,450)">
        <g class="stem">
            <rect x="15" y="20" width="5" height="30" fill="green"/>
        </g>
        <g class="leaves">
            <polygon points="10,40 17,30 24,40" fill="green"/>
        </g>
        <g class="petals">
            <circle cx="17.5" cy="15" r="10" fill="purple"/>
            <g class="innerPetals">
                <circle cx="12" cy="10" r="3" fill="pink"/>
                <circle cx="23" cy="10" r="3" fill="pink"/>
                <circle cx="12" cy="20" r="3" fill="pink"/>
                <circle cx="23" cy="20" r="3" fill="pink"/>
            </g>
        </g>
    </g>

    <g class="flower" id="flower3" transform="translate(300,450)">
        <g class="stem">
            <rect x="15" y="20" width="5" height="30" fill="green"/>
        </g>
        <g class="leaves">
            <polygon points="10,40 17,30 24,40" fill="green"/>
        </g>
        <g class="petals">
            <circle cx="17.5" cy="15" r="10" fill="yellow"/>
            <g class="innerPetals">
                <circle cx="12" cy="10" r="3" fill="orange"/>
                <circle cx="23" cy="10" r="3" fill="orange"/>
                <circle cx="12" cy="20" r="3" fill="orange"/>
                <circle cx="23" cy="20" r="3" fill="orange"/>
            </g>
        </g>
    </g>

</svg>
